# Blender 4.5.2 LTS
# www.blender.org
o tripo_node_2f6ea2ea-6b56-4d23-84ee-a92c9c7903dd
v 0.254848 0.866843 0.005456 0.2549 0.5216 0.2275
v 0.077893 0.741799 -0.328529 0.2588 0.5255 0.2314
v 0.011182 0.741771 -0.293531 0.2588 0.5255 0.2314
v 0.281536 0.748450 0.004528 0.2588 0.5255 0.2314
v 0.223448 0.511304 -0.272912 0.2432 0.5255 0.2157
v 0.058520 0.481367 -0.097843 0.4196 0.2314 0.0706
v 0.056038 0.444247 -0.094708 0.4510 0.2432 0.0784
v 0.105288 0.475418 -0.091764 0.4432 0.2314 0.0745
v 0.085787 0.432274 -0.106335 0.4392 0.2353 0.0667
v 0.054158 0.380126 -0.026555 0.4510 0.2235 0.0745
v 0.063307 0.190721 -0.012960 0.4235 0.2196 0.0627
v 0.060976 0.096347 -0.030137 0.4471 0.2314 0.0745
v 0.050946 0.007339 -0.009553 0.4392 0.2314 0.0706
v 0.030220 0.379059 -0.055166 0.4392 0.2392 0.0824
v 0.011170 0.378862 -0.052118 0.4432 0.2314 0.0784
v 0.022874 0.441970 -0.048842 0.4392 0.2353 0.0706
v 0.054458 0.436103 -0.024359 0.4392 0.2353 0.0784
v 0.041928 0.488207 -0.070704 0.2235 0.5608 0.2353
v 0.052701 0.475632 -0.007302 0.4471 0.2392 0.0824
v 0.088025 0.439016 -0.057508 0.4510 0.2392 0.0745
v 0.081562 0.444454 0.054510 0.4314 0.2471 0.0706
v 0.142055 0.489080 0.002398 0.2588 0.5176 0.2275
v 0.048563 0.485443 0.012540 0.4510 0.2392 0.0941
v 0.074921 0.486715 0.050952 0.3804 0.4628 0.2392
v 0.048068 0.487478 0.078053 0.2823 0.5098 0.2275
v 0.008933 0.485664 0.048182 0.4667 0.2275 0.0784
v 0.055524 0.382944 0.023823 0.4392 0.2353 0.0706
v 0.018045 0.439316 0.050518 0.4314 0.2353 0.0824
v 0.065029 0.439999 0.063278 0.5059 0.5412 0.3059
v 0.051913 0.438131 0.012079 0.4392 0.2353 0.0784
v 0.027193 0.379347 0.052832 0.4471 0.2353 0.0784
v 0.029749 0.001692 0.039093 0.4392 0.2314 0.0706
v 0.045254 0.193232 0.029792 0.4000 0.2000 0.0510
v 0.106732 0.384908 0.080191 0.4550 0.2353 0.0784
v 0.061807 0.184834 0.037366 0.4157 0.2353 0.0627
v 0.087839 0.381331 0.103947 0.4589 0.2314 0.0745
v 0.075737 0.386716 0.104321 0.4510 0.2235 0.0706
v 0.097444 0.381607 0.098175 0.4432 0.2353 0.0588
v 0.099208 0.439107 0.099267 0.4353 0.2314 0.0667
v 0.055146 0.440075 0.080006 0.4589 0.2392 0.0824
v 0.101192 0.483623 0.097990 0.4550 0.2314 0.0784
v 0.281450 0.510850 0.206421 0.2549 0.5216 0.2275
v 0.321720 0.749098 0.075812 0.2588 0.5255 0.2314
v 0.152036 0.969017 0.005306 0.2588 0.5255 0.2314
v 0.069326 0.748643 0.319647 0.2588 0.5255 0.2314
v -0.017838 0.753461 0.286383 0.2549 0.5255 0.2314
v -0.063295 0.747390 0.318266 0.2588 0.5255 0.2314
v -0.006902 0.863087 0.256331 0.2510 0.5255 0.2196
v -0.004816 0.968255 0.153342 0.2510 0.5255 0.2314
v 0.003800 0.488392 0.122712 0.2588 0.5176 0.2275
v -0.051580 0.472757 0.083539 0.4784 0.2314 0.0745
v -0.054503 0.436991 0.084618 0.4510 0.2432 0.0745
v -0.075943 0.381720 0.103743 0.4353 0.2392 0.0627
v -0.100322 0.484313 0.098856 0.4157 0.2706 0.0863
v -0.102718 0.379049 0.071311 0.4550 0.2275 0.0745
v -0.057873 0.380170 0.030915 0.4471 0.2353 0.0784
v -0.052493 0.389792 0.009661 0.4392 0.2314 0.0784
v -0.033557 0.379052 0.057165 0.4471 0.2392 0.0784
v -0.002379 0.381267 0.052611 0.4432 0.2353 0.0784
v -0.016169 0.374030 0.063870 0.4471 0.2275 0.0784
v -0.054130 0.439711 0.061843 0.4550 0.2510 0.0941
v -0.052498 0.449378 0.071407 0.4745 0.2157 0.0706
v -0.020597 0.438343 0.051063 0.4432 0.2353 0.0784
v -0.058631 0.432474 0.027397 0.4432 0.2353 0.0784
v -0.049163 0.484536 0.011310 0.4550 0.2314 0.0824
v -0.005479 0.483131 0.052464 0.3765 0.2627 0.0941
v -0.094026 0.484218 0.055155 0.4314 0.2235 0.0902
v -0.087948 0.442162 0.056545 0.4432 0.2392 0.0824
v -0.102670 0.485135 -0.062632 0.3804 0.2627 0.0824
v -0.104202 0.437342 -0.086631 0.4392 0.2353 0.0667
v -0.108357 0.445528 -0.082743 0.4157 0.2432 0.0706
v -0.065895 0.477572 -0.055177 0.1686 0.6236 0.3098
v -0.008903 0.486506 -0.044989 0.4667 0.2353 0.0902
v -0.049210 0.443031 -0.021013 0.4392 0.2353 0.0784
v -0.020564 0.429724 -0.053396 0.4432 0.2314 0.0824
v -0.060619 0.440328 -0.075339 0.4432 0.2392 0.0784
v -0.063306 0.445519 -0.056431 0.4353 0.3333 0.1373
v -0.010346 0.373418 -0.064514 0.4510 0.2314 0.0784
v -0.032055 0.378984 -0.052643 0.4432 0.2432 0.0863
v -0.016350 0.000018 -0.029945 0.4392 0.2314 0.0745
v -0.071853 0.368233 -0.014195 0.4353 0.2275 0.0706
v -0.054731 0.379026 -0.030874 0.4471 0.2392 0.0902
v -0.105627 0.385542 -0.077347 0.4392 0.2353 0.0706
v -0.193809 0.488313 -0.163212 0.2549 0.5216 0.2235
v -0.090964 0.488082 -0.120536 0.2549 0.5216 0.2196
v -0.096659 0.379864 -0.101973 0.4432 0.2432 0.0745
v -0.056187 0.481263 -0.095099 0.4628 0.2196 0.0784
v -0.066941 0.438286 -0.098995 0.4392 0.2314 0.0667
v -0.059892 0.410436 -0.091959 0.4432 0.2353 0.0784
v -0.059387 0.444175 -0.098892 0.4432 0.2432 0.0745
v -0.295906 0.741078 -0.014345 0.2627 0.5216 0.2275
v -0.321222 0.736196 -0.048950 0.2588 0.5255 0.2314
v -0.074919 0.744136 -0.325707 0.2588 0.5255 0.2314
v -0.181701 0.951535 0.004328 0.2549 0.5216 0.2275
v -0.258258 0.856749 -0.020022 0.2471 0.5255 0.2275
v 0.222903 0.871303 -0.120147 0.2549 0.5176 0.2275
v 0.185303 0.931447 -0.094530 0.2588 0.5255 0.2314
v 0.207624 0.931703 0.006051 0.2588 0.5255 0.2314
v 0.265424 0.812035 -0.056348 0.2627 0.5176 0.2235
v 0.229790 0.829852 -0.137721 0.2549 0.5176 0.2275
v 0.173431 0.934706 0.107610 0.2588 0.5255 0.2314
v 0.210370 0.878325 0.134123 0.2549 0.5176 0.2275
v 0.261748 0.819682 0.066275 0.2588 0.5255 0.2314
v 0.273638 0.781571 0.003162 0.2588 0.5255 0.2314
v 0.073867 0.708945 -0.347844 0.2510 0.5294 0.2235
v 0.022500 0.716268 -0.320779 0.2510 0.5294 0.2235
v 0.042526 0.754254 -0.301832 0.2588 0.5255 0.2314
v 0.081770 0.786049 -0.280967 0.2588 0.5255 0.2314
v 0.116270 0.763216 -0.318171 0.2588 0.5255 0.2314
v 0.147878 0.716650 -0.352740 0.2432 0.5255 0.2235
v 0.026316 0.761383 -0.283389 0.2588 0.5255 0.2314
v -0.015090 0.707591 -0.321354 0.2471 0.5294 0.2235
v -0.030015 0.754074 -0.294262 0.2588 0.5255 0.2275
v -0.000920 0.782679 -0.273504 0.2471 0.5216 0.2275
v 0.282037 0.759606 -0.022353 0.2588 0.5255 0.2314
v 0.275156 0.767538 0.023036 0.2588 0.5255 0.2314
v 0.308802 0.725959 0.014253 0.2588 0.5255 0.2314
v 0.317182 0.736146 -0.040892 0.2588 0.5255 0.2314
v 0.244668 0.501670 -0.228938 0.2510 0.5216 0.2157
v 0.187203 0.490392 -0.221514 0.2549 0.5216 0.2275
v 0.183430 0.506370 -0.282508 0.2549 0.5216 0.2196
v 0.195365 0.537276 -0.321975 0.2549 0.5216 0.2275
v 0.249966 0.536610 -0.292259 0.2588 0.5216 0.2196
v 0.062659 0.488217 -0.135037 0.2549 0.5176 0.2235
v 0.115239 0.488176 -0.141709 0.2510 0.5176 0.2235
v 0.004495 0.488192 -0.098429 0.2549 0.5216 0.2157
v 0.011949 0.488551 -0.129815 0.2588 0.5176 0.2275
v -0.004430 0.488192 -0.074979 0.2000 0.5451 0.2549
v 0.051541 0.443499 -0.078944 0.4353 0.2510 0.0784
v 0.089532 0.444296 -0.105660 0.4314 0.2392 0.0745
v 0.063785 0.418253 -0.095864 0.4432 0.2353 0.0706
v 0.081630 0.402717 -0.106937 0.4471 0.2353 0.0745
v 0.101295 0.398242 -0.096803 0.4392 0.2353 0.0706
v 0.080355 0.378925 -0.081939 0.4392 0.2314 0.0667
v 0.063830 0.389929 -0.095883 0.4392 0.2432 0.0784
v 0.041732 0.428105 -0.073696 0.4353 0.2353 0.0784
v 0.047312 0.439433 -0.068872 0.4589 0.2510 0.0863
v 0.108005 0.443897 -0.081723 0.4392 0.2353 0.0706
v 0.106620 0.428327 -0.082331 0.4392 0.2353 0.0706
v 0.086911 0.379608 -0.064130 0.4392 0.2353 0.0784
v 0.094715 0.400202 -0.062828 0.4353 0.2353 0.0784
v 0.052694 0.400203 -0.009814 0.4392 0.2353 0.0784
v 0.052232 0.395836 0.012697 0.4392 0.2353 0.0784
v 0.060575 0.374218 0.000865 0.4392 0.2353 0.0784
v 0.068814 0.380089 -0.042753 0.4432 0.2353 0.0784
v 0.067325 0.403106 -0.035492 0.4432 0.2314 0.0784
v 0.042756 0.374184 -0.050400 0.4392 0.2353 0.0627
v 0.050520 0.378873 -0.060225 0.4353 0.2314 0.0745
v 0.051837 0.220329 -0.010042 0.4392 0.2353 0.0784
v 0.051751 0.218877 0.010270 0.4392 0.2353 0.0784
v 0.060891 0.190784 0.014862 0.4275 0.2196 0.0667
v 0.052639 0.190564 -0.033612 0.4235 0.2235 0.0667
v 0.044913 0.218876 -0.027872 0.4353 0.2353 0.0667
v 0.071678 0.140615 0.015437 0.4432 0.2392 0.0824
v 0.072368 0.138625 -0.011519 0.4392 0.2353 0.0784
v 0.063313 0.140751 -0.037487 0.4471 0.2392 0.0824
v 0.037341 0.095433 -0.048057 0.4314 0.2275 0.0706
v 0.044402 0.140370 -0.058719 0.4432 0.2432 0.0745
v 0.061704 0.095537 -0.008716 0.4432 0.2353 0.0784
v 0.051481 0.012340 0.010414 0.4392 0.2353 0.0784
v 0.031590 0.000011 0.003628 0.4353 0.2275 0.0706
v 0.033047 0.000056 -0.016275 0.4196 0.2392 0.0745
v 0.046459 0.062987 -0.025428 0.4392 0.2353 0.0784
v 0.032514 0.064098 -0.041776 0.4392 0.2392 0.0706
v 0.052134 0.065851 -0.008227 0.4392 0.2353 0.0784
v 0.051549 0.067090 0.011330 0.4392 0.2392 0.0706
v 0.046265 0.021866 -0.025328 0.4392 0.2314 0.0667
v 0.041984 0.383558 -0.074191 0.4432 0.2353 0.0784
v 0.024475 0.364687 -0.068705 0.4353 0.2314 0.0745
v 0.042826 0.401671 -0.074966 0.4392 0.2353 0.0784
v -0.019965 0.394151 -0.052827 0.4353 0.2392 0.0784
v 0.017512 0.422932 -0.052109 0.4392 0.2353 0.0784
v -0.013326 0.451549 -0.051307 0.4392 0.2353 0.0784
v 0.040732 0.446143 -0.034746 0.4392 0.2353 0.0745
v 0.064271 0.439708 -0.055004 0.4392 0.2432 0.0784
v 0.043810 0.478184 -0.030457 0.4353 0.2745 0.0941
v 0.087488 0.426972 -0.055541 0.4432 0.2314 0.0784
v 0.051528 0.473393 0.014202 0.4392 0.2314 0.0784
v 0.065383 0.487753 -0.051853 0.2157 0.5725 0.2980
v 0.045438 0.488284 -0.028712 0.3882 0.2627 0.0863
v 0.017326 0.488281 -0.046624 0.3255 0.3804 0.1922
v 0.064210 0.443755 -0.057054 0.4392 0.2510 0.0745
v 0.095793 0.444122 -0.056498 0.4471 0.2392 0.0745
v 0.091121 0.415711 0.058841 0.4392 0.2353 0.0784
v 0.075755 0.419782 0.043592 0.4432 0.2392 0.0824
v 0.103459 0.440273 0.072550 0.4157 0.2235 0.0471
v 0.106853 0.412259 0.078163 0.4510 0.2314 0.0706
v 0.101557 0.472838 0.062443 0.4432 0.2314 0.0784
v 0.152892 0.488259 0.077472 0.2588 0.5176 0.2275
v 0.103233 0.488283 0.041600 0.2549 0.5176 0.2275
v 0.099162 0.488312 -0.034771 0.2549 0.5176 0.2275
v 0.162630 0.488303 -0.075578 0.2549 0.5216 0.2275
v 0.084565 0.488241 0.010923 0.2549 0.5176 0.2157
v 0.028407 0.488091 0.031368 0.4471 0.2823 0.1059
v 0.038152 0.471676 0.037340 0.4471 0.2275 0.0784
v 0.052611 0.467130 0.071325 0.4628 0.2157 0.0667
v 0.044425 0.488310 0.053121 0.2353 0.6236 0.2941
v 0.027872 0.488244 0.062533 0.2510 0.5412 0.2275
v 0.059834 0.468286 0.099158 0.4392 0.2353 0.0745
v 0.041658 0.488194 0.097656 0.2471 0.5294 0.2196
v 0.002292 0.488207 0.079371 0.2588 0.5176 0.2275
v 0.016316 0.467130 0.050525 0.4432 0.2353 0.0784
v -0.020801 0.488304 0.060248 0.2078 0.5882 0.2706
v 0.060212 0.373786 0.019118 0.4353 0.2275 0.0706
v 0.071614 0.391498 0.039509 0.4353 0.2353 0.0784
v 0.057709 0.378836 0.050425 0.4353 0.2314 0.0627
v 0.050335 0.374055 0.035069 0.4392 0.2353 0.0784
v 0.038940 0.445032 0.036701 0.4392 0.2314 0.0745
v -0.009244 0.413959 0.051905 0.4392 0.2353 0.0784
v 0.017882 0.412493 0.051616 0.4392 0.2353 0.0784
v -0.008562 0.464891 0.052221 0.4392 0.2314 0.0745
v 0.036168 0.437102 0.065482 0.4432 0.2392 0.0824
v 0.049272 0.439614 0.046743 0.4471 0.2432 0.0784
v 0.037079 0.411249 0.068862 0.4432 0.2353 0.0784
v 0.058666 0.429121 0.026819 0.4314 0.2392 0.0745
v 0.039169 0.384681 0.070126 0.4392 0.2314 0.0745
v 0.031557 0.017626 0.041986 0.4471 0.2314 0.0706
v 0.012871 0.016599 0.050931 0.4510 0.2314 0.0863
v 0.011002 0.000051 0.037013 0.4392 0.2314 0.0745
v 0.010736 0.000001 0.015558 0.4392 0.2314 0.0745
v 0.030317 0.000034 0.021330 0.4392 0.2314 0.0745
v 0.044781 0.015506 0.027866 0.4392 0.2353 0.0706
v 0.044405 0.220819 0.028648 0.4235 0.2392 0.0627
v 0.030823 0.218755 0.042852 0.4471 0.2314 0.0706
v 0.038404 0.190582 0.047567 0.4157 0.2157 0.0627
v 0.096542 0.406070 0.101565 0.4392 0.2275 0.0667
v 0.093016 0.387867 0.060827 0.4432 0.2392 0.0784
v 0.078261 0.378884 0.080936 0.4353 0.2353 0.0667
v 0.041667 0.140193 0.060259 0.4432 0.2353 0.0706
v 0.061861 0.138573 0.039551 0.4392 0.2353 0.0784
v 0.060597 0.385260 0.091550 0.4432 0.2353 0.0706
v 0.074107 0.409981 0.104843 0.4392 0.2314 0.0667
v 0.069097 0.438072 0.101088 0.4353 0.2275 0.0706
v 0.098582 0.468518 0.100621 0.4353 0.2353 0.0784
v 0.056836 0.410642 0.088659 0.4432 0.2353 0.0784
v 0.088634 0.488175 0.138559 0.2549 0.5137 0.2235
v 0.243821 0.499598 0.220781 0.2549 0.5216 0.2275
v 0.238060 0.490777 0.145116 0.2471 0.5255 0.2275
v 0.293639 0.508390 0.147097 0.2588 0.5255 0.2314
v 0.301859 0.533834 0.230720 0.2588 0.5176 0.2275
v 0.255307 0.521785 0.266847 0.2588 0.5176 0.2275
v 0.332630 0.539092 0.151987 0.2549 0.5255 0.2275
v 0.294262 0.759034 0.038788 0.2588 0.5255 0.2314
v 0.273939 0.794027 0.100650 0.2549 0.5216 0.2275
v 0.313587 0.768987 0.135997 0.2588 0.5255 0.2314
v 0.351012 0.714169 0.172346 0.2588 0.5255 0.2314
v 0.344755 0.715059 0.073895 0.2549 0.5255 0.2353
v 0.121503 0.978364 -0.052557 0.2588 0.5255 0.2314
v 0.052531 0.997679 0.001756 0.2510 0.5294 0.2314
v 0.115234 0.978841 0.061511 0.2510 0.5294 0.2314
v 0.024477 0.744780 0.299834 0.2588 0.5255 0.2314
v 0.013929 0.701356 0.323440 0.2510 0.5294 0.2314
v 0.079164 0.715991 0.345497 0.2667 0.5176 0.2353
v 0.113449 0.784364 0.292337 0.2549 0.5216 0.2275
v 0.084369 0.795583 0.265809 0.2549 0.5216 0.2275
v 0.157760 0.747907 0.332159 0.2549 0.5216 0.2275
v -0.011939 0.702862 0.321418 0.2549 0.5333 0.2353
v -0.076106 0.706336 0.349583 0.2588 0.5255 0.2314
v -0.073799 0.803157 0.262208 0.2588 0.5255 0.2314
v -0.123439 0.775862 0.304989 0.2549 0.5216 0.2275
v 0.058433 0.810170 0.265062 0.2588 0.5255 0.2314
v 0.126431 0.878139 0.215354 0.2549 0.5216 0.2275
v 0.098810 0.933747 0.179908 0.2549 0.5255 0.2314
v -0.004659 0.928379 0.211134 0.2510 0.5294 0.2235
v 0.149708 0.834278 0.220813 0.2549 0.5216 0.2275
v -0.113629 0.922792 0.184662 0.2588 0.5255 0.2314
v -0.139591 0.857929 0.217940 0.2549 0.5216 0.2275
v -0.160518 0.814792 0.226058 0.2588 0.5255 0.2314
v 0.052098 0.978648 0.120217 0.2588 0.5255 0.2314
v -0.008788 0.996838 0.059132 0.2510 0.5255 0.2314
v -0.067162 0.974966 0.122666 0.2588 0.5255 0.2314
v -0.035753 0.488194 0.096826 0.2549 0.5137 0.2235
v 0.012317 0.490414 0.160141 0.2549 0.5216 0.2275
v -0.056399 0.488304 0.143317 0.2549 0.5216 0.2275
v -0.062904 0.488136 0.117768 0.2706 0.5098 0.2235
v -0.073102 0.472462 0.106836 0.4314 0.2353 0.0706
v -0.077097 0.451786 0.107366 0.4353 0.2353 0.0667
v -0.053710 0.470172 0.067715 0.4000 0.6157 0.3019
v -0.042250 0.488345 0.047281 0.1569 0.6550 0.3843
v -0.079336 0.424300 0.106949 0.4392 0.2392 0.0706
v -0.034547 0.420184 0.066494 0.4275 0.2353 0.0745
v -0.057105 0.379367 0.081258 0.4628 0.2157 0.0745
v -0.054526 0.399179 0.086576 0.4392 0.2353 0.0784
v -0.079033 0.398038 0.106804 0.4392 0.2392 0.0745
v -0.091621 0.378962 0.086670 0.4314 0.2353 0.0667
v -0.070623 0.378909 0.057759 0.4471 0.2314 0.0627
v -0.101477 0.397089 0.096286 0.4432 0.2353 0.0706
v -0.225988 0.528275 0.297703 0.2588 0.5176 0.2196
v -0.254319 0.514983 0.254636 0.2392 0.5216 0.2196
v -0.168593 0.496041 0.258203 0.2549 0.5216 0.2275
v -0.168789 0.531309 0.322547 0.2549 0.5216 0.2275
v -0.102708 0.479508 0.095010 0.4039 0.2980 0.1059
v -0.112076 0.488174 0.124013 0.2549 0.5137 0.2235
v -0.117828 0.488205 0.057333 0.2549 0.5216 0.2196
v -0.082112 0.380224 0.051341 0.4432 0.2353 0.0784
v -0.102017 0.398515 0.070708 0.4392 0.2392 0.0706
v -0.075829 0.404085 0.043864 0.4432 0.2353 0.0784
v -0.070417 0.366900 0.019718 0.4392 0.2275 0.0706
v -0.053200 0.374080 0.041336 0.4392 0.2275 0.0706
v -0.052659 0.403531 -0.019804 0.4392 0.2353 0.0784
v -0.072412 0.352252 -0.010908 0.4392 0.2353 0.0745
v -0.040614 0.026165 0.033510 0.4392 0.2314 0.0667
v -0.048268 0.014389 0.020513 0.4392 0.2314 0.0745
v -0.027402 0.000032 0.025479 0.4275 0.2314 0.0784
v -0.028335 0.015726 0.044166 0.4471 0.2353 0.0627
v -0.028491 0.392058 0.060615 0.4392 0.2314 0.0745
v -0.010104 0.343087 0.072480 0.4392 0.2314 0.0745
v 0.016429 0.345974 0.071309 0.4432 0.2353 0.0784
v -0.033966 0.340198 0.064930 0.4392 0.2353 0.0706
v -0.064368 0.466405 0.055923 0.4628 0.2275 0.0863
v -0.070435 0.439934 0.053294 0.4392 0.2471 0.0863
v -0.081731 0.460065 0.051636 0.4550 0.2196 0.0706
v -0.042040 0.439671 0.041976 0.4392 0.2353 0.0784
v -0.029624 0.463434 0.044164 0.4314 0.2353 0.0784
v -0.052231 0.439454 0.033287 0.4510 0.2353 0.0824
v -0.043591 0.459981 0.030528 0.4392 0.2353 0.0784
v -0.051973 0.444826 0.010563 0.4353 0.2353 0.0784
v -0.081136 0.427861 0.049265 0.4353 0.2314 0.0745
v -0.036959 0.485784 0.031635 0.4353 0.2549 0.1020
v -0.058894 0.488280 0.040934 0.2275 0.5725 0.2510
v -0.075723 0.488218 0.040321 0.2510 0.5373 0.2314
v -0.061892 0.488356 0.004703 0.3921 0.2863 0.0902
v -0.049751 0.488469 -0.021551 0.3882 0.3804 0.2118
v -0.048388 0.481083 -0.020070 0.4550 0.2353 0.0863
v -0.021492 0.484343 0.047701 0.4196 0.2510 0.0902
v -0.101708 0.461170 0.062347 0.4392 0.2353 0.0706
v -0.104200 0.463964 0.092977 0.4392 0.2314 0.0667
v -0.100659 0.441080 0.068501 0.4275 0.2235 0.0627
v -0.102109 0.421058 0.070509 0.4432 0.2353 0.0706
v -0.072550 0.488285 -0.036538 0.2510 0.5412 0.2275
v -0.083071 0.488233 -0.000221 0.2510 0.5137 0.2118
v -0.110541 0.488304 -0.010817 0.2549 0.5176 0.2157
v -0.153322 0.489742 -0.019595 0.2510 0.5176 0.2235
v -0.150929 0.488190 -0.080747 0.2549 0.5216 0.2275
v -0.103575 0.465870 -0.065264 0.4353 0.2314 0.0706
v -0.104840 0.433054 -0.074001 0.4392 0.2392 0.0706
v -0.106743 0.442607 -0.078917 0.4392 0.2392 0.0706
v -0.087045 0.443819 -0.107034 0.4314 0.2510 0.0824
v -0.094265 0.444760 -0.055283 0.4550 0.2275 0.0667
v -0.092590 0.471196 -0.104593 0.4392 0.2314 0.0667
v -0.060243 0.443052 -0.060795 0.4510 0.2784 0.1020
v -0.054385 0.477700 -0.066680 0.3686 0.2667 0.1216
v -0.034001 0.488487 -0.041002 0.3804 0.3019 0.1176
v -0.017613 0.488304 -0.053348 0.4823 0.2432 0.0784
v -0.011285 0.476216 -0.051809 0.4628 0.2235 0.0941
v -0.034470 0.479047 -0.039730 0.4353 0.2510 0.0863
v 0.019463 0.476572 -0.049654 0.4353 0.2432 0.0824
v -0.034568 0.452829 -0.040697 0.4392 0.2353 0.0784
v -0.045282 0.439664 -0.052650 0.4550 0.2471 0.0941
v -0.062849 0.439532 -0.042344 0.4510 0.2588 0.0902
v -0.069376 0.408131 -0.037677 0.4392 0.2353 0.0784
v -0.041716 0.422535 -0.073907 0.4432 0.2353 0.0706
v -0.084478 0.410469 -0.106731 0.4353 0.2314 0.0627
v -0.007654 0.356778 -0.072670 0.4275 0.2392 0.0784
v -0.037823 0.353741 -0.063001 0.4432 0.2353 0.0706
v -0.069786 0.379794 -0.041525 0.4471 0.2432 0.0863
v -0.050997 0.378885 -0.061421 0.4432 0.2275 0.0745
v -0.038564 0.393569 -0.070740 0.4432 0.2353 0.0784
v -0.026294 0.012591 -0.045654 0.4392 0.2314 0.0667
v -0.004979 0.012270 -0.052371 0.4432 0.2353 0.0784
v -0.002173 0.000004 -0.028936 0.4314 0.2314 0.0745
v -0.004010 0.000000 -0.008816 0.4392 0.2314 0.0745
v -0.023673 0.000009 -0.016426 0.4353 0.2314 0.0745
v -0.044440 0.012663 -0.028652 0.4392 0.2392 0.0706
v -0.061304 0.351161 -0.040487 0.4392 0.2392 0.0706
v -0.093371 0.383374 -0.062734 0.4510 0.2353 0.0706
v -0.090960 0.408226 -0.059033 0.4392 0.2353 0.0784
v -0.105699 0.408404 -0.075437 0.4392 0.2392 0.0706
v -0.104282 0.408627 -0.092388 0.4275 0.2353 0.0667
v -0.101734 0.382994 -0.093006 0.4353 0.2353 0.0549
v -0.078851 0.378858 -0.079681 0.4392 0.2353 0.0745
v -0.142985 0.488166 -0.145347 0.2549 0.5216 0.2275
v -0.241977 0.492366 -0.102485 0.2549 0.5216 0.2275
v -0.280785 0.506260 -0.187040 0.2549 0.5216 0.2275
v -0.211356 0.496931 -0.241231 0.2549 0.5216 0.2275
v -0.140703 0.488652 -0.214987 0.2549 0.5216 0.2275
v -0.132501 0.497877 -0.268706 0.2549 0.5216 0.2275
v -0.156433 0.517804 -0.307913 0.2549 0.5216 0.2196
v -0.287003 0.532096 -0.249537 0.2549 0.5137 0.2235
v -0.251049 0.542502 -0.297517 0.2588 0.5216 0.2157
v -0.040607 0.488286 -0.126884 0.2588 0.5176 0.2275
v -0.061701 0.387898 -0.093455 0.4550 0.2275 0.0667
v -0.051279 0.477584 -0.079550 0.3568 0.2627 0.0745
v -0.051217 0.443810 -0.083177 0.4550 0.2314 0.0745
v -0.273446 0.781052 0.006834 0.2510 0.5294 0.2314
v -0.266079 0.815994 -0.048517 0.2471 0.5255 0.2275
v -0.275514 0.786387 -0.072075 0.2549 0.5216 0.2275
v -0.317597 0.760639 -0.099209 0.2588 0.5216 0.2314
v -0.360490 0.693272 -0.117479 0.2549 0.5333 0.2353
v -0.338575 0.684811 -0.037065 0.2510 0.5294 0.2314
v -0.323463 0.680747 0.010867 0.2510 0.5255 0.2314
v -0.081911 0.707875 -0.350669 0.2510 0.5294 0.2314
v -0.122815 0.768227 -0.313793 0.2588 0.5255 0.2314
v -0.082212 0.791430 -0.272283 0.2549 0.5216 0.2275
v -0.166461 0.716492 -0.350834 0.2471 0.5255 0.2196
v -0.238966 0.894460 0.018252 0.2432 0.5294 0.2275
v -0.195317 0.911404 0.116283 0.2549 0.5216 0.2275
v -0.137870 0.969440 0.062687 0.2432 0.5294 0.2275
v -0.074836 0.994470 0.000731 0.2510 0.5294 0.2314
v -0.150225 0.964702 -0.055947 0.2549 0.5216 0.2275
v -0.219557 0.902640 -0.081468 0.2549 0.5216 0.2275
v -0.260820 0.833322 0.055431 0.2471 0.5216 0.2235
v -0.235358 0.838888 -0.122923 0.2549 0.5216 0.2275
v -0.246278 0.809184 -0.137604 0.2549 0.5216 0.2275
v -0.152698 0.906427 -0.173719 0.2588 0.5255 0.2314
v -0.182660 0.846083 -0.189788 0.2627 0.5137 0.2275
v -0.199479 0.815253 -0.199080 0.2549 0.5216 0.2275
v -0.244999 0.791968 -0.233442 0.2549 0.5216 0.2275
v -0.289229 0.785807 -0.170190 0.2549 0.5216 0.2275
v -0.120148 0.836331 -0.237604 0.2549 0.5216 0.2235
v -0.139947 0.809842 -0.244460 0.2510 0.5216 0.2275
v -0.184916 0.787849 -0.281826 0.2549 0.5216 0.2275
v -0.234574 0.724916 -0.322058 0.2549 0.5216 0.2196
v -0.297142 0.726235 -0.268807 0.2549 0.5216 0.2196
v -0.313334 0.635936 -0.269006 0.2549 0.5216 0.2275
v -0.351938 0.627003 -0.194407 0.2471 0.5255 0.2275
v -0.341448 0.716770 -0.202574 0.2549 0.5216 0.2275
v -0.254648 0.642821 -0.323341 0.2549 0.5216 0.2275
v -0.261226 0.584048 -0.318634 0.2549 0.5216 0.2275
v -0.311289 0.572261 -0.263482 0.2549 0.5216 0.2275
v -0.175161 0.652479 -0.356934 0.2510 0.5294 0.2314
v -0.175599 0.594993 -0.356908 0.2549 0.5216 0.2275
v -0.170470 0.555242 -0.342860 0.2549 0.5216 0.2275
v -0.083927 0.660536 -0.355655 0.2588 0.5373 0.2392
v -0.082172 0.606577 -0.355223 0.2588 0.5255 0.2314
v -0.081498 0.565514 -0.345173 0.2549 0.5176 0.2275
v -0.079392 0.529071 -0.314085 0.2549 0.5216 0.2196
v -0.019309 0.611730 -0.329128 0.2510 0.5294 0.2314
v -0.019388 0.574298 -0.323204 0.2549 0.5216 0.2275
v -0.022893 0.541428 -0.299804 0.2510 0.5176 0.2157
v -0.022016 0.513802 -0.257691 0.2549 0.5216 0.2196
v -0.076797 0.502428 -0.267838 0.2549 0.5176 0.2314
v 0.010902 0.576954 -0.318987 0.2432 0.5255 0.2275
v 0.012936 0.545680 -0.297320 0.2549 0.5216 0.2196
v 0.011923 0.517633 -0.256603 0.2549 0.5216 0.2196
v 0.014032 0.495545 -0.185356 0.2549 0.5216 0.2275
v -0.027674 0.493084 -0.186793 0.2549 0.5216 0.2275
v 0.056054 0.537666 -0.314529 0.2549 0.5216 0.2196
v 0.055828 0.507442 -0.268868 0.2549 0.5216 0.2196
v 0.061605 0.489845 -0.195371 0.2510 0.5176 0.2235
v 0.122202 0.503258 -0.282391 0.2549 0.5216 0.2196
v 0.121343 0.488539 -0.211364 0.2549 0.5216 0.2275
v 0.182777 0.488177 -0.145599 0.2549 0.5216 0.2275
v 0.256133 0.494395 -0.148292 0.2549 0.5216 0.2275
v 0.238408 0.495813 -0.063283 0.2549 0.5216 0.2275
v 0.310948 0.519600 -0.152346 0.2588 0.5255 0.2235
v 0.295478 0.521389 -0.058195 0.2549 0.5216 0.2196
v 0.274852 0.533009 -0.000360 0.2549 0.5216 0.2275
v 0.219122 0.506299 0.001100 0.2549 0.5216 0.2275
v 0.287214 0.515870 0.058792 0.2549 0.5216 0.2196
v 0.227331 0.493147 0.065181 0.2549 0.5216 0.2275
v 0.164175 0.488172 0.144682 0.2510 0.5176 0.2235
v 0.172835 0.489227 0.216185 0.2549 0.5216 0.2275
v 0.091242 0.488387 0.189753 0.2510 0.5176 0.2235
v 0.179462 0.505478 0.281387 0.2549 0.5216 0.2275
v 0.091024 0.498704 0.262197 0.2549 0.5216 0.2275
v 0.017171 0.504181 0.226394 0.2549 0.5216 0.2275
v 0.090521 0.528986 0.316947 0.2588 0.5255 0.2275
v 0.018914 0.532188 0.285944 0.2549 0.5216 0.2275
v -0.020068 0.525219 0.276785 0.2549 0.5216 0.2275
v -0.029943 0.496872 0.211106 0.2510 0.5176 0.2235
v -0.087289 0.503822 0.275089 0.2549 0.5216 0.2275
v -0.100059 0.488405 0.196573 0.2549 0.5216 0.2275
v -0.178285 0.488328 0.186039 0.2549 0.5216 0.2275
v -0.178145 0.488200 0.109496 0.2549 0.5216 0.2275
v -0.163809 0.489583 0.039041 0.2549 0.5216 0.2235
v -0.274592 0.503585 0.186695 0.2510 0.5216 0.2235
v -0.268647 0.499575 0.099376 0.2510 0.5176 0.2235
v -0.243999 0.507332 0.024049 0.2510 0.5176 0.2235
v -0.335298 0.546720 0.095430 0.2549 0.5216 0.2275
v -0.309477 0.554073 0.019534 0.2549 0.5176 0.2235
v -0.308995 0.554403 -0.018407 0.2549 0.5216 0.2275
v -0.237327 0.507041 -0.018327 0.2510 0.5176 0.2235
v -0.335603 0.547509 -0.094022 0.2588 0.5176 0.2275
v -0.332842 0.618535 -0.025980 0.2471 0.5255 0.2275
v -0.359014 0.622332 -0.103073 0.2471 0.5255 0.2275
v -0.340178 0.556900 -0.186339 0.2549 0.5216 0.2235
v -0.328606 0.614963 0.018857 0.2510 0.5294 0.2314
v -0.357075 0.617606 0.091406 0.2510 0.5294 0.2314
v -0.356805 0.686560 0.090610 0.2510 0.5255 0.2314
v -0.352404 0.619436 0.192799 0.2471 0.5255 0.2275
v -0.351700 0.704834 0.187559 0.2510 0.5176 0.2235
v -0.310489 0.771763 0.139446 0.2549 0.5216 0.2275
v -0.321275 0.744050 0.062883 0.2627 0.5216 0.2314
v -0.311899 0.716212 0.258285 0.2549 0.5216 0.2196
v -0.266345 0.789972 0.209900 0.2510 0.5216 0.2275
v -0.225366 0.813815 0.169420 0.2549 0.5216 0.2275
v -0.265778 0.797278 0.095899 0.2549 0.5216 0.2275
v -0.285757 0.769998 0.047284 0.2549 0.5216 0.2275
v -0.216666 0.847310 0.148809 0.2549 0.5216 0.2275
v -0.201950 0.791880 0.267233 0.2549 0.5216 0.2275
v -0.247461 0.720018 0.317014 0.2510 0.5216 0.2275
v -0.172995 0.713967 0.350725 0.2432 0.5255 0.2235
v -0.176452 0.639980 0.356484 0.2510 0.5294 0.2314
v -0.081956 0.651141 0.354897 0.2510 0.5294 0.2314
v -0.252649 0.629633 0.324523 0.2549 0.5216 0.2275
v -0.247620 0.566602 0.318791 0.2549 0.5216 0.2275
v -0.174602 0.577628 0.353572 0.2549 0.5216 0.2275
v -0.312010 0.622432 0.270303 0.2549 0.5216 0.2275
v -0.297691 0.557915 0.268261 0.2588 0.5176 0.2275
v -0.332943 0.549458 0.192878 0.2549 0.5216 0.2275
v -0.083734 0.544675 0.330678 0.2549 0.5216 0.2275
v -0.081776 0.594060 0.354998 0.2588 0.5255 0.2392
v -0.017236 0.562187 0.314146 0.2549 0.5216 0.2275
v -0.016555 0.603333 0.327453 0.2588 0.5255 0.2314
v -0.015530 0.661428 0.326745 0.2549 0.5333 0.2353
v 0.019055 0.607594 0.328926 0.2549 0.5216 0.2275
v 0.017530 0.664866 0.327819 0.2510 0.5294 0.2314
v 0.089186 0.615453 0.356578 0.2588 0.5255 0.2314
v 0.093219 0.671784 0.357366 0.2588 0.5255 0.2314
v 0.189617 0.623591 0.353356 0.2588 0.5255 0.2314
v 0.189256 0.691091 0.353386 0.2627 0.5216 0.2275
v 0.269318 0.631707 0.313025 0.2510 0.5216 0.2275
v 0.261402 0.707804 0.314588 0.2588 0.5255 0.2235
v 0.224764 0.771432 0.285485 0.2510 0.5176 0.2235
v 0.319703 0.714851 0.248414 0.2549 0.5255 0.2235
v 0.279162 0.780275 0.215315 0.2588 0.5137 0.2235
v 0.236840 0.809861 0.176123 0.2549 0.5216 0.2275
v 0.181630 0.807474 0.241357 0.2432 0.5255 0.2275
v 0.220917 0.817606 0.161322 0.2588 0.5255 0.2314
v 0.160285 0.815452 0.224615 0.2510 0.5216 0.2275
v 0.217898 0.837894 0.152365 0.2549 0.5216 0.2275
v 0.260804 0.800509 0.085419 0.2588 0.5216 0.2275
v 0.327948 0.643665 0.247633 0.2588 0.5176 0.2275
v 0.358582 0.660352 0.166741 0.2588 0.5255 0.2314
v 0.359468 0.609879 0.160850 0.2588 0.5255 0.2314
v 0.350182 0.630027 0.064758 0.2510 0.5294 0.2314
v 0.351770 0.677195 0.069912 0.2510 0.5294 0.2314
v 0.328056 0.595347 0.247554 0.2549 0.5216 0.2275
v 0.320262 0.563900 0.242639 0.2588 0.5176 0.2275
v 0.354143 0.572363 0.157284 0.2510 0.5176 0.2235
v 0.272882 0.584667 0.309747 0.2588 0.5176 0.2275
v 0.266848 0.553334 0.295350 0.2588 0.5176 0.2275
v 0.189993 0.575398 0.349045 0.2549 0.5216 0.2275
v 0.185995 0.538695 0.325782 0.2588 0.5255 0.2314
v 0.090494 0.569206 0.349010 0.2588 0.5255 0.2314
v 0.018253 0.567750 0.318336 0.2549 0.5216 0.2275
v 0.348037 0.585392 0.059856 0.2549 0.5216 0.2275
v 0.325407 0.548011 0.058787 0.2549 0.5216 0.2275
v 0.305292 0.563436 0.002977 0.2549 0.5176 0.2275
v 0.318559 0.593675 0.002682 0.2588 0.5255 0.2314
v 0.347248 0.595040 -0.056614 0.2588 0.5255 0.2314
v 0.347869 0.648050 -0.058248 0.2510 0.5294 0.2314
v 0.321141 0.642989 0.006938 0.2588 0.5255 0.2314
v 0.330893 0.556422 -0.056528 0.2588 0.5176 0.2275
v 0.345463 0.556334 -0.156567 0.2549 0.5216 0.2196
v 0.359525 0.597284 -0.159570 0.2588 0.5255 0.2314
v 0.328220 0.596838 -0.247366 0.2549 0.5216 0.2275
v 0.331177 0.653421 -0.242226 0.2510 0.5255 0.2314
v 0.359460 0.651986 -0.160353 0.2510 0.5294 0.2314
v 0.317200 0.561853 -0.245940 0.2627 0.5137 0.2275
v 0.268921 0.566397 -0.303503 0.2549 0.5216 0.2275
v 0.276427 0.598428 -0.307424 0.2588 0.5255 0.2314
v 0.290228 0.528461 -0.239010 0.2588 0.5216 0.2196
v 0.210280 0.601952 -0.346605 0.2549 0.5216 0.2275
v 0.216321 0.658845 -0.344020 0.2627 0.5294 0.2353
v 0.278717 0.655620 -0.305401 0.2588 0.5255 0.2314
v 0.204863 0.568563 -0.341258 0.2549 0.5216 0.2275
v 0.132258 0.569269 -0.354236 0.2549 0.5176 0.2275
v 0.138401 0.607407 -0.361219 0.2471 0.5255 0.2275
v 0.126557 0.534984 -0.329251 0.2549 0.5216 0.2196
v 0.057353 0.572431 -0.340940 0.2588 0.5216 0.2353
v 0.012395 0.612702 -0.324810 0.2510 0.5294 0.2314
v 0.061406 0.610172 -0.348983 0.2510 0.5294 0.2314
v 0.015640 0.667694 -0.326828 0.2510 0.5294 0.2314
v 0.067995 0.666049 -0.351143 0.2510 0.5294 0.2314
v 0.146019 0.662572 -0.360846 0.2510 0.5294 0.2314
v 0.208300 0.728367 -0.332652 0.2549 0.5255 0.2275
v 0.170987 0.785787 -0.289050 0.2549 0.5216 0.2275
v 0.228415 0.794013 -0.244826 0.2549 0.5216 0.2275
v 0.271116 0.735287 -0.288078 0.2549 0.5216 0.2196
v 0.277083 0.790778 -0.184763 0.2549 0.5216 0.2275
v 0.323544 0.730741 -0.224835 0.2588 0.5255 0.2275
v 0.313092 0.767935 -0.116134 0.2588 0.5255 0.2314
v 0.351906 0.717292 -0.154542 0.2471 0.5294 0.2314
v 0.345849 0.698198 -0.053220 0.2510 0.5294 0.2314
v 0.322833 0.686815 0.009517 0.2510 0.5294 0.2314
v 0.239508 0.811100 -0.151470 0.2549 0.5216 0.2275
v 0.272802 0.790143 -0.079574 0.2588 0.5216 0.2314
v 0.191656 0.814396 -0.210672 0.2549 0.5216 0.2275
v 0.178622 0.830819 -0.199697 0.2667 0.5137 0.2196
v 0.117532 0.819759 -0.243265 0.2549 0.5255 0.2314
v 0.097988 0.847751 -0.243769 0.2549 0.5216 0.2275
v 0.164036 0.864580 -0.196780 0.2588 0.5255 0.2235
v 0.134289 0.806192 -0.253759 0.2549 0.5216 0.2275
v 0.066145 0.796348 -0.265574 0.2549 0.5255 0.2314
v 0.045146 0.819677 -0.266207 0.2471 0.5294 0.2314
v -0.057696 0.815862 -0.264387 0.2510 0.5294 0.2314
v -0.011914 0.868360 -0.254068 0.2549 0.5216 0.2275
v 0.051807 0.908860 -0.223629 0.2627 0.5216 0.2275
v -0.079868 0.895650 -0.225447 0.2549 0.5216 0.2275
v -0.014576 0.952993 -0.179166 0.2510 0.5255 0.2314
v 0.061523 0.976976 -0.120564 0.2510 0.5255 0.2314
v 0.125632 0.926907 -0.171771 0.2588 0.5255 0.2314
v -0.090283 0.967981 -0.124947 0.2510 0.5294 0.2314
v -0.012574 0.996870 -0.058708 0.2510 0.5294 0.2314
v -0.017464 0.666765 -0.327967 0.2471 0.5255 0.2275
v -0.080522 0.488733 -0.197694 0.2549 0.5176 0.2275
v -0.086472 0.433609 -0.054735 0.4471 0.2235 0.0745
v -0.037954 0.327211 -0.062832 0.4432 0.2353 0.0706
v -0.061158 0.325626 -0.040629 0.4392 0.2392 0.0706
v -0.072791 0.327696 -0.008485 0.4392 0.2353 0.0784
v -0.068973 0.334252 0.024772 0.4432 0.2353 0.0784
v -0.061183 0.297753 -0.040374 0.4314 0.2314 0.0627
v -0.072644 0.298351 -0.009432 0.4353 0.2353 0.0784
v -0.069624 0.299771 0.022080 0.4392 0.2275 0.0745
v -0.055724 0.301622 0.047529 0.4589 0.2275 0.0706
v -0.054928 0.340263 0.048430 0.4392 0.2353 0.0706
v -0.052046 0.280404 -0.008188 0.4275 0.2353 0.0784
v -0.050724 0.280851 0.013764 0.4353 0.2314 0.0745
v -0.041077 0.281730 0.032546 0.4392 0.2353 0.0784
v -0.025814 0.281645 0.045669 0.4353 0.2353 0.0784
v -0.033749 0.303417 0.065079 0.4353 0.2392 0.0824
v -0.051466 0.217761 0.011291 0.4432 0.2353 0.0784
v -0.043127 0.218076 0.030253 0.4432 0.2353 0.0706
v -0.027826 0.218325 0.044580 0.4432 0.2314 0.0667
v -0.008991 0.218532 0.051658 0.4392 0.2353 0.0824
v -0.006428 0.282481 0.052130 0.4392 0.2314 0.0745
v -0.051910 0.190389 0.036161 0.4196 0.2118 0.0588
v -0.033826 0.190774 0.053260 0.4118 0.2039 0.0549
v -0.011059 0.190591 0.061158 0.4275 0.2235 0.0706
v 0.013336 0.190438 0.059207 0.4157 0.2118 0.0510
v 0.011882 0.218487 0.051286 0.4432 0.2353 0.0706
v -0.038822 0.139422 0.062134 0.4392 0.2353 0.0745
v -0.011772 0.139056 0.072254 0.4432 0.2353 0.0784
v 0.015824 0.139587 0.071449 0.4392 0.2353 0.0784
v -0.010121 0.095507 0.060943 0.4392 0.2314 0.0745
v 0.013454 0.095431 0.060196 0.4392 0.2314 0.0745
v 0.034918 0.095357 0.051090 0.4432 0.2275 0.0706
v 0.051171 0.095354 0.034626 0.4392 0.2314 0.0745
v 0.011718 0.069043 0.051345 0.4392 0.2353 0.0784
v 0.030387 0.068849 0.043019 0.4471 0.2314 0.0784
v 0.044073 0.068200 0.029087 0.4392 0.2392 0.0706
v 0.059565 0.095475 0.013618 0.4471 0.2196 0.0706
v -0.008564 0.068755 0.051874 0.4392 0.2353 0.0784
v -0.009226 0.015833 0.051664 0.4392 0.2314 0.0745
v -0.027275 0.068158 0.045008 0.4392 0.2392 0.0706
v -0.007792 0.000008 0.032188 0.4392 0.2314 0.0745
v -0.028068 0.000005 0.003187 0.4392 0.2275 0.0706
v -0.006355 0.000000 0.009851 0.4392 0.2314 0.0745
v 0.013076 0.000000 -0.003082 0.4392 0.2314 0.0745
v 0.015414 0.000005 -0.024293 0.4196 0.2314 0.0706
v 0.017593 0.012261 -0.049798 0.4392 0.2353 0.0745
v 0.036644 0.012943 -0.037735 0.4392 0.2392 0.0706
v -0.007660 0.064661 -0.052203 0.4392 0.2353 0.0784
v 0.013302 0.064017 -0.051216 0.4392 0.2392 0.0706
v -0.010074 0.095549 -0.060305 0.4392 0.2314 0.0588
v 0.014126 0.095314 -0.059161 0.4353 0.2314 0.0745
v -0.012186 0.138928 -0.072356 0.4392 0.2353 0.0784
v 0.016968 0.139110 -0.071455 0.4392 0.2353 0.0784
v -0.010789 0.190705 -0.062947 0.4432 0.2353 0.0784
v 0.014673 0.190632 -0.062516 0.4432 0.2392 0.0824
v 0.036272 0.190617 -0.051672 0.4235 0.2314 0.0706
v 0.012270 0.218084 -0.051482 0.4392 0.2353 0.0706
v 0.030065 0.217972 -0.043509 0.4392 0.2392 0.0706
v 0.014212 0.280638 -0.050943 0.4275 0.2353 0.0745
v 0.032960 0.280995 -0.041377 0.4432 0.2353 0.0706
v 0.045869 0.281947 -0.026109 0.4392 0.2314 0.0745
v 0.048181 0.302378 -0.055673 0.4392 0.2353 0.0706
v 0.064939 0.304341 -0.033763 0.4471 0.2275 0.0745
v 0.072835 0.306068 -0.008520 0.4471 0.2314 0.0745
v 0.052374 0.282805 -0.007548 0.4392 0.2353 0.0784
v 0.070953 0.307133 0.017554 0.4392 0.2353 0.0784
v 0.051758 0.283449 0.011926 0.4353 0.2314 0.0745
v 0.060885 0.307746 0.041039 0.4353 0.2353 0.0784
v 0.044593 0.283720 0.028612 0.4392 0.2314 0.0784
v 0.043247 0.307670 0.059325 0.4432 0.2314 0.0745
v 0.031096 0.284153 0.042599 0.4392 0.2353 0.0784
v 0.019907 0.307057 0.070493 0.4432 0.2353 0.0784
v 0.013197 0.282987 0.051100 0.4353 0.2353 0.0745
v -0.006851 0.305445 0.072542 0.4432 0.2314 0.0784
v 0.040709 0.346903 0.061006 0.4432 0.2353 0.0784
v 0.059703 0.348513 0.042668 0.4471 0.2314 0.0667
v 0.070579 0.346983 0.019799 0.4392 0.2353 0.0784
v 0.073022 0.344748 -0.005526 0.4392 0.2353 0.0784
v 0.066108 0.342272 -0.032378 0.4432 0.2392 0.0824
v 0.050463 0.341456 -0.053633 0.4392 0.2392 0.0706
v 0.025915 0.334887 -0.068863 0.4432 0.2392 0.0824
v 0.022542 0.300641 -0.069993 0.4392 0.2314 0.0784
v -0.007864 0.299448 -0.072635 0.4392 0.2353 0.0784
v -0.006768 0.330026 -0.073091 0.4432 0.2353 0.0745
v -0.007160 0.280207 -0.052322 0.4314 0.2353 0.0824
v -0.027753 0.280023 -0.044819 0.4392 0.2353 0.0784
v -0.038405 0.298134 -0.062409 0.4392 0.2353 0.0784
v -0.008754 0.217816 -0.052121 0.4432 0.2353 0.0784
v -0.028119 0.217358 -0.044607 0.4432 0.2353 0.0706
v -0.043771 0.216887 -0.029500 0.4392 0.2392 0.0706
v -0.043943 0.280469 -0.029075 0.4392 0.2353 0.0784
v -0.034459 0.190730 -0.053470 0.4118 0.2078 0.0588
v -0.052193 0.190768 -0.035506 0.4157 0.2078 0.0510
v -0.062281 0.190732 -0.012101 0.4353 0.2353 0.0784
v -0.051770 0.217281 -0.009581 0.4392 0.2353 0.0784
v -0.040212 0.139478 -0.061442 0.4471 0.2392 0.0824
v -0.060875 0.139131 -0.041129 0.4392 0.2392 0.0706
v -0.072041 0.138659 -0.012979 0.4392 0.2353 0.0784
v -0.071447 0.138685 0.016090 0.4392 0.2353 0.0784
v -0.062249 0.190633 0.013267 0.4510 0.2432 0.0824
v -0.051178 0.095570 -0.033345 0.4353 0.2314 0.0745
v -0.060274 0.095627 -0.010352 0.4353 0.2314 0.0745
v -0.059081 0.095809 0.014182 0.4353 0.2314 0.0745
v -0.049737 0.095522 0.036593 0.4392 0.2314 0.0745
v -0.059668 0.138384 0.042630 0.4432 0.2353 0.0706
v -0.052013 0.065603 -0.007849 0.4392 0.2353 0.0745
v -0.050726 0.066317 0.013966 0.4392 0.2353 0.0784
v -0.041782 0.067384 0.031988 0.4392 0.2353 0.0784
v -0.032257 0.095399 0.052685 0.4392 0.2314 0.0745
v -0.052471 0.013233 -0.002848 0.4314 0.2314 0.0745
v -0.044321 0.065541 -0.028846 0.4392 0.2392 0.0706
v -0.033066 0.095460 -0.051035 0.4392 0.2314 0.0745
v -0.028203 0.064350 -0.044585 0.4432 0.2353 0.0784
v -0.101716 0.420225 0.095885 0.4392 0.2314 0.0667
v -0.101452 0.441942 0.092359 0.4196 0.2157 0.0510
v 0.062656 0.488240 -0.010881 0.3765 0.3255 0.1255
v 0.080204 0.488262 -0.039820 0.2588 0.5176 0.2275
s 1
f 1 96 97 98
f 1 99 100 96
f 1 98 101 102
f 1 103 104 99
f 2 105 106 107
f 2 107 108 109
f 2 109 110 105
f 3 111 107 106
f 113 114 111 3
f 3 106 112 113
f 4 115 104 116
f 4 117 118 115
f 5 119 120 121
f 5 121 122 123
f 6 124 125 8
f 6 126 127 124
f 6 18 128 126
f 6 7 129 18
f 6 8 130 7
f 9 131 7 130
f 132 133 134 135
f 7 136 137 129
f 9 130 138 139
f 140 134 133 141
f 10 142 143 144
f 10 145 146 142
f 10 147 148 145
f 11 149 150 151
f 11 152 153 149
f 11 151 154 155
f 11 155 156 152
f 12 157 158 156
f 12 156 155 159
f 13 160 161 162
f 12 163 164 157
f 12 159 165 163
f 13 165 166 160
f 13 167 163 165
f 14 168 148 147
f 15 170 168 14
f 14 147 169 15
f 15 78 79 171
f 16 137 136 172
f 16 172 75 173
f 16 174 175 137
f 17 30 142 146
f 17 174 176 19
f 17 177 175 174
f 17 19 178 30
f 18 179 180 181
f 18 129 182 179
f 20 183 182 175
f 139 138 183 20
f 20 175 177 139
f 21 184 185 29
f 21 186 187 184
f 21 24 188 186
f 22 189 41 190
f 22 191 8 192
f 22 190 193 191
f 23 194 195 178
f 24 193 190 188
f 24 21 196 197
f 25 198 197 196
f 200 201 198 25
f 25 196 199 200
f 26 202 195 194
f 26 198 201 203
f 26 194 197 198
f 27 204 144 143
f 206 207 204 27
f 27 143 205 206
f 28 208 195 202
f 28 63 209 210
f 28 202 211 63
f 28 212 213 208
f 28 210 214 212
f 40 196 21 29
f 29 213 212 40
f 30 208 213 215
f 30 215 143 142
f 30 178 195 208
f 31 210 209 59
f 31 207 206 216
f 31 216 214 210
f 32 217 218 219
f 32 219 220 221
f 32 221 222 217
f 33 223 224 225
f 151 150 223 33
f 33 225 35 151
f 34 187 226 38
f 34 227 184 187
f 34 38 228 227
f 35 225 229 230
f 35 230 154 151
f 36 37 231 228
f 226 232 37 36
f 36 228 38 226
f 39 226 187 186
f 39 233 232 226
f 39 186 188 234
f 39 234 199 233
f 40 233 199 196
f 40 212 214 235
f 40 235 232 233
f 41 200 199 234
f 41 234 188 190
f 41 236 50 200
f 42 237 238 239
f 42 240 241 237
f 42 239 242 240
f 43 243 244 245
f 43 245 246 247
f 44 248 249 250
f 44 98 97 248
f 44 250 101 98
f 45 251 252 253
f 45 254 255 251
f 45 253 256 254
f 46 257 252 251
f 46 47 258 257
f 46 259 260 47
f 46 261 48 259
f 46 251 255 261
f 48 262 263 264
f 48 261 265 262
f 48 264 266 267
f 48 267 268 259
f 49 264 263 269
f 49 269 270 271
f 49 271 266 264
f 50 272 201 200
f 50 273 274 275
f 50 275 276 272
f 51 203 201 272
f 51 272 276 277
f 51 278 279 203
f 52 62 278 51
f 52 51 277 280
f 52 281 61 62
f 53 282 283 284
f 53 285 286 282
f 53 284 287 285
f 288 289 290 291
f 54 292 275 274
f 294 67 292 54
f 54 274 293 294
f 55 295 286 285
f 55 285 287 296
f 55 296 297 295
f 56 295 297 57
f 299 286 295 56
f 56 57 298 299
f 57 300 82 81
f 57 81 301 298
f 302 303 304 305
f 58 306 283 282
f 58 282 286 299
f 58 60 59 306
f 59 209 281 306
f 60 307 308 59
f 60 58 309 307
f 61 310 278 62
f 61 311 312 310
f 63 313 311 61
f 63 61 281 209
f 63 211 314 313
f 64 315 316 317
f 297 318 315 64
f 64 317 57 297
f 65 319 279 320
f 65 320 321 322
f 65 322 323 324
f 66 325 314 211
f 66 211 202 26
f 67 321 312 326
f 67 326 327 292
f 68 328 326 312
f 318 329 328 68
f 68 312 311 318
f 69 330 331 332
f 69 332 333 334
f 69 335 72 330
f 70 71 338 88
f 71 337 339 335
f 71 335 340 338
f 72 77 341 342
f 72 343 323 330
f 72 342 344 343
f 73 345 346 343
f 181 347 345 73
f 73 343 344 181
f 74 348 349 350
f 74 300 57 317
f 74 350 351 300
f 75 349 348 173
f 75 352 76 349
f 76 352 89 353
f 77 72 335 339
f 78 354 355 79
f 79 82 356 357
f 79 357 358 171
f 80 359 360 361
f 80 361 362 363
f 80 363 364 359
f 81 82 365 301
f 82 300 351 356
f 83 366 367 368
f 83 368 369 370
f 83 370 371 366
f 84 372 334 373
f 375 376 372 84
f 84 373 374 375
f 377 376 375 378
f 379 380 375 374
f 85 381 87 340
f 85 340 335 69
f 85 69 334 372
f 86 382 371 370
f 86 370 369 353
f 87 383 384 90
f 87 90 338 340
f 87 381 127 126
f 87 126 128 383
f 89 382 86 353
f 89 352 358 382
f 91 385 386 387
f 91 387 388 92
f 92 388 389 390
f 92 390 391 91
f 93 113 112 392
f 93 393 394 113
f 93 392 395 393
f 94 396 397 398
f 94 398 399 400
f 94 400 401 396
f 95 386 385 402
f 401 403 386 95
f 95 402 396 401
f 403 404 387 386
f 403 401 405 406
f 403 406 407 404
f 407 408 409 404
f 407 406 410 411
f 407 411 412 408
f 412 413 414 408
f 412 411 394 393
f 412 393 395 413
f 414 415 416 417
f 414 417 409 408
f 414 413 418 415
f 418 419 420 415
f 418 413 395 421
f 418 421 422 419
f 422 423 380 419
f 422 421 424 425
f 422 425 426 423
f 426 427 378 423
f 426 425 428 429
f 426 429 430 427
f 430 431 432 427
f 430 429 433 434
f 430 434 435 431
f 435 436 437 431
f 435 434 438 439
f 435 439 440 436
f 440 124 127 436
f 440 439 441 442
f 440 442 125 124
f 442 441 121 120
f 442 120 443 125
f 443 120 119 444
f 443 444 445 192
f 443 192 8 125
f 445 444 446 447
f 445 447 448 449
f 445 449 22 192
f 449 448 450 451
f 449 451 189 22
f 451 450 239 238
f 451 238 452 189
f 452 238 237 453
f 452 453 454 236
f 452 236 41 189
f 454 453 455 456
f 454 456 457 273
f 454 273 50 236
f 457 456 458 459
f 457 459 460 461
f 457 461 274 273
f 461 460 462 463
f 461 463 293 274
f 463 462 290 464
f 463 464 465 293
f 465 466 294 293
f 465 464 467 468
f 465 468 469 466
f 469 468 470 471
f 469 471 472 473
f 469 473 333 466
f 473 472 474 373
f 473 373 334 333
f 474 472 475 476
f 474 476 416 477
f 474 477 374 373
f 477 416 415 420
f 477 420 379 374
f 476 475 390 389
f 476 389 417 416
f 475 472 471 478
f 475 478 391 390
f 478 471 470 479
f 478 479 480 391
f 480 479 481 482
f 480 482 483 484
f 480 484 91 391
f 483 482 485 486
f 483 486 487 488
f 483 488 489 484
f 488 487 490 402
f 488 402 385 489
f 490 487 268 267
f 490 267 266 397
f 490 397 396 402
f 487 486 491 268
f 491 492 493 260
f 491 260 259 268
f 491 486 485 492
f 493 494 495 258
f 493 258 47 260
f 493 492 496 494
f 496 497 498 494
f 496 492 485 499
f 496 499 500 497
f 500 501 467 289
f 500 289 288 497
f 500 499 481 501
f 501 481 479 470
f 501 470 468 467
f 499 485 482 481
f 498 291 502 503
f 498 503 495 494
f 498 497 288 291
f 503 502 504 505
f 503 505 506 495
f 506 505 507 508
f 506 508 252 257
f 506 257 258 495
f 508 507 509 510
f 508 510 253 252
f 510 509 511 512
f 510 512 256 253
f 512 511 513 514
f 512 514 515 256
f 515 514 516 517
f 515 517 518 519
f 515 519 254 256
f 519 518 520 521
f 519 521 255 254
f 521 520 522 265
f 521 265 261 255
f 522 520 523 103
f 522 103 1 102
f 522 102 262 265
f 523 244 243 116
f 523 116 104 103
f 523 520 518 244
f 518 517 245 244
f 517 516 246 245
f 516 524 525 246
f 516 514 513 524
f 525 526 527 528
f 525 528 247 246
f 525 524 529 526
f 529 530 531 526
f 529 524 513 532
f 529 532 533 530
f 533 241 240 530
f 533 532 534 535
f 533 535 455 241
f 535 534 536 458
f 535 458 456 455
f 536 534 511 509
f 536 509 507 537
f 536 537 459 458
f 537 507 505 504
f 537 504 460 459
f 534 532 513 511
f 531 538 527 526
f 531 530 240 242
f 531 242 539 538
f 539 540 541 538
f 539 242 239 450
f 539 450 448 540
f 541 542 543 544
f 541 544 527 538
f 541 540 545 542
f 545 546 547 542
f 545 540 448 447
f 545 447 446 546
f 547 548 549 550
f 547 550 543 542
f 547 546 551 548
f 551 552 553 548
f 551 546 446 554
f 551 554 123 552
f 554 446 444 119
f 554 119 5 123
f 553 555 556 557
f 553 557 549 548
f 553 552 558 555
f 558 559 560 555
f 558 552 123 122
f 558 122 561 559
f 561 441 439 438
f 561 438 562 559
f 561 122 121 441
f 562 438 434 433
f 562 433 563 564
f 562 564 560 559
f 564 563 565 566
f 564 566 567 560
f 567 566 105 110
f 567 110 568 556
f 567 556 555 560
f 568 110 109 569
f 568 569 570 571
f 568 571 557 556
f 571 570 572 573
f 571 573 549 557
f 573 572 574 575
f 573 575 550 549
f 575 574 118 576
f 575 576 543 550
f 576 118 117 577
f 576 577 544 543
f 577 117 247 528
f 577 528 527 544
f 574 572 578 579
f 574 579 115 118
f 579 578 100 99
f 579 99 104 115
f 578 580 581 100
f 578 572 570 580
f 581 582 583 584
f 581 584 96 100
f 581 580 585 582
f 585 108 586 582
f 585 580 570 569
f 585 569 109 108
f 586 111 114 587
f 586 587 583 582
f 586 108 107 111
f 587 114 588 589
f 587 589 590 583
f 590 589 591 592
f 590 592 593 594
f 590 594 584 583
f 594 593 248 97
f 594 97 96 584
f 593 592 595 596
f 593 596 249 248
f 596 595 400 399
f 596 399 270 249
f 595 405 401 400
f 595 592 591 405
f 591 410 406 405
f 591 589 588 410
f 588 394 411 410
f 588 114 113 394
f 566 565 106 105
f 565 563 428 597
f 565 597 112 106
f 597 428 425 424
f 597 424 392 112
f 563 433 429 428
f 504 502 462 460
f 502 291 290 462
f 467 464 290 289
f 466 333 332 294
f 455 453 237 241
f 437 381 85 598
f 437 598 432 431
f 437 436 127 381
f 598 85 372 376
f 598 376 377 432
f 432 377 378 427
f 424 421 395 392
f 423 378 375 380
f 420 419 380 379
f 417 389 388 409
f 409 388 387 404
f 399 398 271 270
f 398 397 266 271
f 489 385 91 484
f 383 128 344 342
f 383 342 341 384
f 382 358 357 371
f 371 357 356 366
f 369 70 76 353
f 369 368 336 70
f 368 367 599 336
f 367 366 356 351
f 367 351 350 599
f 365 82 79 355
f 365 355 600 601
f 365 601 602 301
f 602 603 298 301
f 602 601 604 605
f 602 605 606 603
f 606 607 608 603
f 606 605 609 610
f 606 610 611 607
f 611 612 613 607
f 611 610 614 615
f 611 615 616 612
f 616 617 618 612
f 616 615 619 620
f 616 620 621 617
f 621 622 623 617
f 621 620 624 625
f 621 625 626 622
f 626 229 225 622
f 626 625 627 628
f 626 628 629 229
f 629 630 230 229
f 629 628 631 632
f 629 632 633 630
f 633 166 634 630
f 633 632 217 222
f 633 222 160 166
f 634 159 155 154
f 634 154 230 630
f 634 166 165 159
f 632 631 218 217
f 631 628 627 635
f 631 635 636 218
f 636 635 637 305
f 636 305 304 638
f 636 638 219 218
f 638 304 639 640
f 638 640 220 219
f 640 639 363 362
f 640 362 641 220
f 641 161 221 220
f 641 362 361 642
f 641 642 162 161
f 642 361 360 643
f 642 643 644 162
f 643 360 645 646
f 643 646 164 644
f 646 645 647 648
f 646 648 157 164
f 648 647 649 650
f 648 650 158 157
f 650 649 651 652
f 650 652 653 158
f 653 652 654 655
f 653 655 153 152
f 653 152 156 158
f 655 654 656 657
f 655 657 658 153
f 658 657 659 660
f 658 660 661 662
f 658 662 149 153
f 662 661 663 664
f 662 664 150 149
f 664 663 665 666
f 664 666 223 150
f 666 665 667 668
f 666 668 224 223
f 668 667 669 670
f 668 670 623 224
f 670 669 671 618
f 670 618 617 623
f 671 669 308 307
f 671 307 309 613
f 671 613 612 618
f 669 667 672 308
f 672 673 207 31
f 672 31 59 308
f 672 667 665 673
f 673 674 204 207
f 673 665 663 674
f 674 675 144 204
f 674 663 661 675
f 675 676 10 144
f 675 661 660 676
f 676 677 147 10
f 676 660 659 677
f 677 678 169 147
f 677 659 679 678
f 679 680 681 678
f 679 659 657 656
f 679 656 682 680
f 682 683 684 680
f 682 656 654 685
f 682 685 686 683
f 686 687 688 683
f 686 685 651 689
f 686 689 690 687
f 690 691 692 687
f 690 689 693 694
f 690 694 695 691
f 695 696 697 691
f 695 694 698 699
f 695 699 700 696
f 700 701 702 696
f 700 699 703 704
f 700 704 705 701
f 705 637 706 701
f 705 704 303 302
f 705 302 305 637
f 706 627 625 624
f 706 624 702 701
f 706 637 635 627
f 704 703 707 303
f 707 703 708 364
f 707 364 363 639
f 707 639 304 303
f 708 703 699 698
f 708 698 709 710
f 708 710 359 364
f 710 709 647 645
f 710 645 360 359
f 709 698 694 693
f 709 693 649 647
f 702 624 620 619
f 702 619 697 696
f 697 619 615 614
f 697 614 692 691
f 693 689 651 649
f 692 614 610 609
f 692 609 688 687
f 688 609 605 604
f 688 604 684 683
f 685 654 652 651
f 684 604 601 600
f 684 600 681 680
f 681 600 355 354
f 681 354 169 678
f 623 622 225 224
f 613 309 608 607
f 608 309 58 299
f 608 299 298 603
f 358 352 75 171
f 599 339 337 336
f 348 74 324 346
f 348 346 345 173
f 74 317 65 324
f 347 181 180 176
f 347 176 174 16
f 347 16 173 345
f 346 324 323 343
f 344 128 18 181
f 332 331 67 294
f 331 330 323 322
f 331 322 321 67
f 329 318 297 296
f 329 296 287 711
f 329 711 712 328
f 712 711 280 277
f 712 277 276 327
f 712 327 326 328
f 711 287 284 280
f 327 276 275 292
f 321 320 310 312
f 320 279 278 310
f 65 317 316 319
f 318 311 313 315
f 316 315 313 314
f 316 314 325 319
f 306 281 52 283
f 284 283 52 280
f 270 269 250 249
f 269 263 101 250
f 263 262 102 101
f 235 231 37 232
f 235 214 216 231
f 231 216 206 228
f 228 206 205 227
f 227 205 185 184
f 222 221 161 160
f 215 213 29 185
f 215 185 205 143
f 325 66 26 203
f 325 203 279 319
f 197 194 23 24
f 24 23 713 193
f 193 713 714 191
f 713 180 179 714
f 182 183 714 179
f 182 129 137 175
f 177 141 133 139
f 177 17 146 141
f 75 172 15 171
f 172 136 170 15
f 15 169 354 78
f 170 131 135 168
f 168 135 134 148
f 644 164 163 167
f 167 13 162 644
f 148 134 140 145
f 146 145 140 141
f 139 133 132 9
f 8 191 714 183
f 138 130 8 183
f 135 131 9 132
f 243 43 247 117
f 243 117 4 116
f 70 336 337 71
f 170 136 7 131
f 180 713 19 176
f 713 23 178 19
f 338 90 384 88
f 384 76 70 88
f 341 77 339 599
f 341 599 350
f 341 350 349
f 341 349 76
f 341 76 384
